<svg width="128" height="128" viewBox="0 0 128 128" fill="none" xmlns="http://www.w3.org/2000/svg">
<g clip-path="url(#clip0_3335_47478)">
<path fill-rule="evenodd" clip-rule="evenodd" d="M128 0H0L0.650055 127.65L128 128V0ZM0.650055 54.8434V0.650006H54.844C26.8256 4.66365 4.66398 26.8251 0.650055 54.8434ZM0.650055 73.1566V127.35H54.8441C41.0607 125.376 28.6946 119.009 19.2092 109.714L19.2042 109.719L18.285 108.8L18.2899 108.795C8.99285 99.3093 2.62494 86.9418 0.650055 73.1566ZM73.1558 127.35H127.35V73.1552C125.375 86.941 119.007 99.309 109.71 108.795L109.715 108.8L108.796 109.719L108.791 109.714C99.3053 119.009 86.9392 125.376 73.1558 127.35ZM127.35 54.8448V0.650006H73.1559C101.175 4.66372 123.337 26.8258 127.35 54.8448ZM107.871 108.795C96.7071 119.73 81.4719 126.526 64.6501 126.697V65.5736L107.871 108.795ZM108.791 107.876L65.5649 64.65H126.697C126.526 81.4741 119.729 96.7111 108.791 107.876ZM63.3501 126.697C46.5281 126.526 31.2928 119.731 20.1285 108.795L63.3501 65.5734V126.697ZM19.2092 107.876L62.435 64.65H1.30326C1.47413 81.4741 8.27122 96.7111 19.2092 107.876ZM64.6501 1.3033V62.435L107.876 19.2093C96.7111 8.27128 81.4741 1.4742 64.6501 1.3033ZM108.795 20.1286L65.5735 63.35H126.697C126.526 46.5281 119.73 31.2928 108.795 20.1286ZM63.3501 62.4352V1.3033C46.5259 1.47415 31.2889 8.27124 20.1242 19.2093L63.3501 62.4352ZM19.205 20.1286C8.26946 31.2928 1.47411 46.5281 1.30326 63.35H62.4264L19.205 20.1286Z" fill="#F9A67C" fill-opacity="0.12"/>
</g>
<defs>
<clipPath id="clip0_3335_47478">
<rect width="128" height="128" fill="white"/>
</clipPath>
</defs>
</svg>
